<?xml version="1.0" encoding="UTF-8" standalone="no"?>
<!-- Generator: Adobe Illustrator 16.0.0, SVG Export Plug-In . SVG Version: 6.00 Build 0)  -->

<svg
   xmlns:dc="http://purl.org/dc/elements/1.1/"
   xmlns:cc="http://creativecommons.org/ns#"
   xmlns:rdf="http://www.w3.org/1999/02/22-rdf-syntax-ns#"
   xmlns:svg="http://www.w3.org/2000/svg"
   xmlns="http://www.w3.org/2000/svg"
   xmlns:sodipodi="http://sodipodi.sourceforge.net/DTD/sodipodi-0.dtd"
   xmlns:inkscape="http://www.inkscape.org/namespaces/inkscape"
   version="1.1"
   id="Layer_1"
   x="0px"
   y="0px"
   width="1000px"
   height="1000px"
   viewBox="0 0 1000 1000"
   enable-background="new 0 0 1000 1000"
   xml:space="preserve"
   inkscape:version="0.91 r13725"
   sodipodi:docname="P.svg"><metadata
     id="metadata63"><rdf:RDF><cc:Work
         rdf:about=""><dc:format>image/svg+xml</dc:format><dc:type
           rdf:resource="http://purl.org/dc/dcmitype/StillImage" /></cc:Work></rdf:RDF></metadata><defs
     id="defs61" /><sodipodi:namedview
     pagecolor="#ffffff"
     bordercolor="#666666"
     borderopacity="1"
     objecttolerance="10"
     gridtolerance="10"
     guidetolerance="10"
     inkscape:pageopacity="0"
     inkscape:pageshadow="2"
     inkscape:window-width="1366"
     inkscape:window-height="718"
     id="namedview59"
     showgrid="false"
     inkscape:zoom="0.3337544"
     inkscape:cx="-131.19099"
     inkscape:cy="434.0611"
     inkscape:window-x="0"
     inkscape:window-y="25"
     inkscape:window-maximized="1"
     inkscape:current-layer="Layer_1" /><g
     id="g9"
     transform="translate(5.9924304,-2.9962151)"><g
       id="g11"><path
         style="fill:#5695a0"
         inkscape:connector-curvature="0"
         id="path13"
         d="m 295.483,985.225 c -17.894,0 -31.69,-3.06 -40.104,-5.615 -50.834,-14.393 -81.736,-53.732 -93.772,-86.088 l -0.435,-1.191 c -17.24,-48.591 -1.631,-111.535 5.953,-136.532 l 89.401,-298.79 -43.397,15.596 -2.681,0.763 c -13.063,3.738 -26.041,5.627 -38.583,5.627 -0.005,0 -0.005,0 -0.008,0 C 110.593,478.987 71.771,435.968 61.266,395.545 47.25,342.729 66.762,284.07 73.762,265.775 97.639,200.532 142.71,168.028 157.252,158.921 233.62,108.885 377.533,64.237 393.773,59.286 490.223,29.764 578.569,14.778 656.265,14.778 c 72.328,0 113.784,13.042 128.266,18.661 53.262,19.279 96.634,53.209 125.506,98.202 20.525,31.998 27.563,59.958 29.563,69.9 22.126,105.574 -52.195,185.954 -67.288,200.974 -23.173,24.071 -71.782,64.553 -220.988,139.166 -44.948,22.469 -86.789,41.891 -115.102,54.707 L 465.078,844.21 c -17.109,61.601 -53.688,100.624 -82.688,116.932 -27.57,15.757 -57.606,24.083 -86.907,24.083 z" /></g></g><g
     id="g15"
     transform="translate(5.9924304,-2.9962151)"><g
       id="g17"><path
         style="fill:#c0ce6f"
         inkscape:connector-curvature="0"
         id="path19"
         d="m 436.938,303.454 -62.046,50.329 -127.519,426.21 c 0,0 -17.128,56.353 -7.211,84.312 0,0 10.138,27.258 38.99,34.92 0,0 26.366,9.469 61.982,-11.037 0,0 29.298,-16.006 43.272,-66.715 l 82.04,-285.793 c 0,0 277.666,-119.907 346.185,-192.031 0,0 59.479,-56.894 44.843,-125.36 0,0 -13.769,-74.882 -102.564,-106.432 0,0 -103.676,-43.729 -336.697,27.6 0,0 -147.847,45.073 -215.915,90.154 0,0 -33.354,19.376 -50.035,65.536 0,0 -18.479,47.604 -9.917,79.155 0,0 7.208,29.301 45.076,18.484 l 249.516,-89.332 z" /></g></g></svg>